<svg width="24" height="24" viewBox="0 0 24 24" fill="none" xmlns="http://www.w3.org/2000/svg">
<path fill-rule="evenodd" clip-rule="evenodd" d="M21.7076 17.5685C21.7732 17.6709 21.8651 17.8494 21.9044 17.9651C21.9898 18.2031 22.0259 18.5765 21.9799 18.7913C21.9143 19.1052 21.6813 19.4985 21.0512 20.3512C20.6706 20.8634 19.988 21.5673 19.7124 21.7326C19.0594 22.1159 18.5048 22.0928 17.2284 21.6268C15.0396 20.827 12.9296 19.6571 10.8952 18.1204C7.00001 15.1791 4.16487 11.4745 2.2649 6.83455C2.02207 6.24297 1.9827 6.05128 2.00566 5.58864C2.03194 5.02682 2.2058 4.60052 2.65864 3.99906C3.16072 3.33479 4.33552 2.38302 4.96222 2.13846C5.55622 1.90708 6.09433 1.9666 6.51435 2.31026C6.74737 2.5053 7.91558 3.94619 8.38483 4.62034C8.73921 5.13257 9.22815 5.92571 9.41521 6.28926C9.65804 6.76843 9.70067 7.24431 9.54317 7.71032C9.41848 8.07715 9.3102 8.19943 8.64075 8.73478C8.29952 9.01239 7.99104 9.26689 7.96149 9.29989C7.93199 9.33629 7.86635 9.45193 7.81712 9.56097C7.61698 9.99392 7.73839 10.5855 8.21746 11.5538C8.58831 12.3073 9.0575 12.9749 9.74664 13.7316C10.3308 14.3761 11.092 15.0271 11.686 15.3906C12.4506 15.8599 13.4448 16.2168 13.9929 16.2202C14.2291 16.2202 14.5638 16.1243 14.7345 16.0053C14.8034 15.9591 15.0626 15.6649 15.3153 15.351C15.942 14.5677 16.1389 14.3926 16.513 14.2868C16.8609 14.1844 17.3301 14.2935 17.9634 14.6206C19.0726 15.1924 21.2941 16.9406 21.7076 17.5685ZM19.6727 9.76551C19.5528 7.70432 18.7466 6.04598 17.3038 4.87921C16.4908 4.22361 15.5082 3.77279 14.4311 3.55355C14.0365 3.47514 13.31 3.41158 13.1854 3.44794C13.0678 3.4816 12.9015 3.60894 12.8273 3.7241C12.7489 3.84898 12.7313 4.12779 12.7981 4.28907C12.9061 4.55868 13.1069 4.65393 13.6693 4.70313C14.5363 4.77899 15.4306 5.0836 16.1063 5.53455C16.8777 6.048 17.4909 6.75027 17.8876 7.57551C18.2303 8.28456 18.4411 9.30638 18.4353 10.2214C18.4333 10.5524 18.4845 10.7392 18.6175 10.8759C18.8184 11.086 19.1113 11.1319 19.3697 10.9924C19.6561 10.8418 19.7231 10.5774 19.6727 9.76551ZM17.2964 9.00641C17.2135 8.33363 17.0068 7.80537 16.6395 7.33745C16.1627 6.73494 15.5533 6.37415 14.6511 6.16012C14.0632 6.01747 13.8256 6.03384 13.613 6.22808C13.4149 6.41007 13.3762 6.77489 13.5276 7.01114C13.6341 7.18261 13.7569 7.24404 14.0984 7.31108C14.5532 7.39477 14.8676 7.50338 15.1535 7.66686C15.7604 8.01728 16.043 8.56564 16.0733 9.4534C16.0874 9.87023 16.1234 9.99838 16.269 10.1462C16.5388 10.4165 17.0191 10.3639 17.2228 10.0405C17.2975 9.91862 17.3089 9.86557 17.3168 9.58252C17.322 9.40729 17.3145 9.14647 17.2964 9.00641Z" fill="black"/>
</svg>
