<svg width="24" height="24" viewBox="0 0 24 24" fill="none" xmlns="http://www.w3.org/2000/svg">
<path fill-rule="evenodd" clip-rule="evenodd" d="M13.0789 17.954C13.0789 17.954 13.476 17.9154 13.6793 17.7239C13.8655 17.5485 13.859 17.2175 13.859 17.2175C13.859 17.2175 13.8343 15.6718 14.6531 15.4436C15.4601 15.2192 16.4964 16.9384 17.5961 17.5994C18.4267 18.0993 19.0573 17.9899 19.0573 17.9899L21.9959 17.954C21.9959 17.954 23.5325 17.871 22.804 16.812C22.7437 16.7252 22.379 16.0283 20.6197 14.5968C18.7764 13.0982 19.0239 13.3406 21.2427 10.7482C22.5942 9.16949 23.1343 8.20569 22.9654 7.79358C22.8051 7.39938 21.8108 7.50406 21.8108 7.50406L18.5031 7.52198C18.5031 7.52198 18.2578 7.49275 18.076 7.58799C17.8984 7.68136 17.7833 7.8992 17.7833 7.8992C17.7833 7.8992 17.2603 9.12045 16.562 10.1597C15.0889 12.3514 14.5003 12.4673 14.2593 12.3315C13.6987 12.0137 13.8386 11.0565 13.8386 10.3766C13.8386 8.2519 14.2066 7.36638 13.123 7.13722C12.7636 7.06083 12.4989 7.01085 11.5789 7.00236C10.3985 6.99199 9.4 7.00613 8.83401 7.2485C8.4574 7.40976 8.16688 7.77 8.34442 7.79075C8.56285 7.81621 9.05782 7.90769 9.32037 8.22078C9.65932 8.62535 9.64748 9.53257 9.64748 9.53257C9.64748 9.53257 9.84224 12.0335 9.19233 12.3438C8.74685 12.5569 8.13567 12.1222 6.82185 10.1333C6.14934 9.1148 5.64146 7.98879 5.64146 7.98879C5.64146 7.98879 5.54354 7.77849 5.36815 7.66533C5.15617 7.52858 4.86027 7.48615 4.86027 7.48615L1.71721 7.50406C1.71721 7.50406 1.24484 7.51538 1.0716 7.6955C0.917726 7.85488 1.05976 8.18589 1.05976 8.18589C1.05976 8.18589 3.52062 13.2322 6.30751 15.7756C8.86306 18.1068 11.764 17.954 11.764 17.954H13.0789Z" fill="black"/>
</svg>
