<svg width="24" height="24" viewBox="0 0 24 24" fill="none" xmlns="http://www.w3.org/2000/svg">
<path fill-rule="evenodd" clip-rule="evenodd" d="M12.0419 21.8281H12.0377C10.3711 21.8276 8.73348 21.4114 7.27898 20.6218L2 22L3.41274 16.8645C2.54129 15.3615 2.08274 13.6566 2.08349 11.9099C2.08567 6.44562 6.55292 2 12.0418 2C14.7057 2.00114 17.206 3.03324 19.0861 4.90654C20.9662 6.77974 22.0011 9.26968 22 11.9177C21.9978 17.3807 17.5323 21.8259 12.0419 21.8281ZM7.52399 18.8277L7.82623 19.0063C9.09702 19.7568 10.5537 20.1539 12.0389 20.1544H12.0423C16.6042 20.1544 20.3172 16.4592 20.319 11.9172C20.3199 9.71615 19.4598 7.64662 17.8971 6.08961C16.3344 4.5326 14.2563 3.67471 12.0456 3.67395C7.48007 3.67395 3.76706 7.36886 3.76524 11.9105C3.7646 13.467 4.20219 14.9828 5.03072 16.2942L5.22751 16.6059L4.39137 19.6456L7.52399 18.8277ZM17.0588 14.2744C16.9966 14.1711 16.8308 14.1091 16.5819 13.9851C16.3331 13.8612 15.1098 13.2622 14.8817 13.1794C14.6536 13.0968 14.4877 13.0556 14.3219 13.3034C14.156 13.5513 13.6791 14.1091 13.534 14.2744C13.3888 14.4396 13.2437 14.4603 12.995 14.3363C12.7461 14.2124 11.9444 13.9509 10.994 13.1072C10.2543 12.4506 9.7549 11.6397 9.60976 11.3918C9.46462 11.1439 9.59429 11.0099 9.71885 10.8864C9.8308 10.7754 9.96769 10.5971 10.0921 10.4526C10.2165 10.308 10.258 10.2047 10.3409 10.0395C10.4238 9.87418 10.3824 9.72962 10.3202 9.60567C10.258 9.48171 9.76035 8.26282 9.553 7.76698C9.35101 7.28412 9.14589 7.34953 8.99317 7.3419C8.8482 7.33466 8.68214 7.33313 8.51628 7.33313C8.35041 7.33313 8.08082 7.39511 7.85276 7.64303C7.62469 7.89094 6.9819 8.49004 6.9819 9.70884C6.9819 10.9277 7.87348 12.1052 7.9979 12.2705C8.1223 12.4358 9.75243 14.937 12.2485 16.0096C12.8421 16.2648 13.3056 16.4171 13.667 16.5312C14.263 16.7198 14.8055 16.6932 15.2342 16.6294C15.7123 16.5583 16.7063 16.0304 16.9137 15.4519C17.121 14.8734 17.121 14.3776 17.0588 14.2744Z" fill="black"/>
</svg>
